<svg xmlns="http://www.w3.org/2000/svg" width="96" height="96" viewBox="0 0 96 96"><g transform="translate(14618 -11110)"><circle cx="48" cy="48" r="48" transform="translate(-14618 11110)" fill="#fff"/><g transform="translate(-14601.984 11137.133)"><path d="M98.717,379.04q5.573,5.336,5.576,14.574v1.116q0,9.319-5.576,14.654a14.068,14.068,0,0,1-4.78,3.028,14.907,14.907,0,0,1-2.828,1q-1.473.359-3.065.6a16.07,16.07,0,0,1-3.9,0h-.08a25.29,25.29,0,0,1-5.975-1.553,14.814,14.814,0,0,1-4.7-3.068q-5.736-5.333-5.575-14.654v-1.116q-.16-9.237,5.575-14.574a15.417,15.417,0,0,1,4.7-3.107,21.9,21.9,0,0,1,5.975-1.514h.08a16.073,16.073,0,0,1,3.9,0,23.916,23.916,0,0,1,5.893,1.514q1.353.639,2.549,1.354a11.639,11.639,0,0,1,2.23,1.753m-2.151,14.574q0-5.733-2.31-8.562a11.167,11.167,0,0,0-6.054-3.784,7.7,7.7,0,0,0-4.378,0,11.345,11.345,0,0,0-6.015,3.784q-2.351,2.826-2.269,8.562v1.116a18.826,18.826,0,0,0,.6,5.018,10.663,10.663,0,0,0,1.713,3.624,9.313,9.313,0,0,0,2.627,2.388,12.485,12.485,0,0,0,3.347,1.395,10.168,10.168,0,0,0,4.378,0,11.156,11.156,0,0,0,6.054-3.783q2.308-2.827,2.31-8.642Z" transform="translate(-67.809 -372.569)" fill="#3d3d3d"/><path d="M98.717,379.04q5.573,5.336,5.576,14.574v1.116q0,9.319-5.576,14.654a14.068,14.068,0,0,1-4.78,3.028,14.907,14.907,0,0,1-2.828,1q-1.473.359-3.065.6a16.07,16.07,0,0,1-3.9,0h-.08a25.29,25.29,0,0,1-5.975-1.553,14.814,14.814,0,0,1-4.7-3.068q-5.736-5.333-5.575-14.654v-1.116q-.16-9.237,5.575-14.574a15.417,15.417,0,0,1,4.7-3.107,21.9,21.9,0,0,1,5.975-1.514h.08a16.073,16.073,0,0,1,3.9,0,23.916,23.916,0,0,1,5.893,1.514q1.353.639,2.549,1.354A11.639,11.639,0,0,1,98.717,379.04Zm-2.151,14.574q0-5.733-2.31-8.562a11.167,11.167,0,0,0-6.054-3.784,7.7,7.7,0,0,0-4.378,0,11.345,11.345,0,0,0-6.015,3.784q-2.351,2.826-2.269,8.562v1.116a18.826,18.826,0,0,0,.6,5.018,10.663,10.663,0,0,0,1.713,3.624,9.313,9.313,0,0,0,2.627,2.388,12.485,12.485,0,0,0,3.347,1.395,10.168,10.168,0,0,0,4.378,0,11.156,11.156,0,0,0,6.054-3.783q2.308-2.827,2.31-8.642Z" transform="translate(-67.809 -372.569)" fill="#f27221"/><path d="M147.877,442.448a32.818,32.818,0,0,1-8.512-1.306,15.98,15.98,0,0,1-6.513-3.815,16.229,16.229,0,0,1-4.133-5.957,22.611,22.611,0,0,1-1.639-9v-.635l.636-.036c.524-.006,1.052-.01,1.578-.01,2.236,0,4.387.075,6.218.222l.589.047.006.592a15.545,15.545,0,0,0,.9,5.538,9.308,9.308,0,0,0,2.453,3.643,9.776,9.776,0,0,0,3.7,2.01,18.58,18.58,0,0,0,4.734.727h12.565a4.116,4.116,0,0,1,3.1,1.289,4.411,4.411,0,0,1,1.213,3.146v3.55Z" transform="translate(-102.98 -400.685)" fill="#3d3d3d"/><path d="M128.345,421.385c2.163,0,4.313.072,6.173.221a16.156,16.156,0,0,0,.947,5.772,9.868,9.868,0,0,0,2.629,3.889,10.358,10.358,0,0,0,3.941,2.144,19.039,19.039,0,0,0,4.9.753h12.583a3.467,3.467,0,0,1,2.627,1.091,3.756,3.756,0,0,1,1.035,2.7v2.9H146.936a31.992,31.992,0,0,1-8.325-1.276,15.282,15.282,0,0,1-6.253-3.664,15.5,15.5,0,0,1-3.982-5.735,21.875,21.875,0,0,1-1.594-8.761V421.4q.78-.01,1.563-.011m0-1.293c-.528,0-1.058,0-1.584.013l-1.271.021v1.27a23.279,23.279,0,0,0,1.7,9.3,16.825,16.825,0,0,0,4.3,6.176,16.592,16.592,0,0,0,6.742,3.942,33.474,33.474,0,0,0,8.659,1.333h17.584v-4.2a5.039,5.039,0,0,0-1.391-3.59,4.732,4.732,0,0,0-3.564-1.491H146.936a17.911,17.911,0,0,1-4.532-.7,9.144,9.144,0,0,1-3.458-1.877,8.667,8.667,0,0,1-2.279-3.393,15.014,15.014,0,0,1-.857-5.309l-.011-1.182-1.178-.094c-1.848-.148-4.017-.226-6.275-.226" transform="translate(-102.037 -399.741)" fill="#fff"/><path d="M127.091,391.175a22.16,22.16,0,0,1,1.637-8.486,17.446,17.446,0,0,1,4.125-6.021,15.647,15.647,0,0,1,6.519-3.778,34.082,34.082,0,0,1,8.483-1.261h6.553a10.333,10.333,0,0,1,10.363,10.363v5.543l-9.023-1.825.006-3.269a2.847,2.847,0,0,0-.884-2.112,2.9,2.9,0,0,0-2.134-.877h-4.859a21.174,21.174,0,0,0-4.714.805,9.807,9.807,0,0,0-3.7,2.01,9.289,9.289,0,0,0-2.453,3.645,15.161,15.161,0,0,0-.888,5.048l-.015.594-.593.032c-2.2.121-4.959.207-7.769.246l-.665.008Z" transform="translate(-102.98 -370.983)" fill="#3d3d3d"/><path d="M153.447,371.332a9.689,9.689,0,0,1,9.719,9.717V385.8l-7.732-1.563c0-.017,0-1.562,0-1.582V381.5a3.5,3.5,0,0,0-1.074-2.571,3.552,3.552,0,0,0-2.589-1.065h-4.859a21.788,21.788,0,0,0-4.9.834,10.4,10.4,0,0,0-3.943,2.143,9.923,9.923,0,0,0-2.627,3.893,15.712,15.712,0,0,0-.931,5.266c-2.333.128-5.156.21-7.74.245a21.463,21.463,0,0,1,1.581-8.24,16.75,16.75,0,0,1,3.982-5.813,14.928,14.928,0,0,1,6.255-3.625,33.264,33.264,0,0,1,8.321-1.235h6.531m0-1.291h-6.531a34.771,34.771,0,0,0-8.692,1.288,16.288,16.288,0,0,0-6.783,3.934,18.086,18.086,0,0,0-4.282,6.264,22.739,22.739,0,0,0-1.674,8.7l-.024,1.331,1.332-.017c2.832-.039,5.6-.126,7.8-.248l1.184-.064.035-1.188a14.455,14.455,0,0,1,.843-4.829,8.683,8.683,0,0,1,2.277-3.4,9.154,9.154,0,0,1,3.458-1.874,20.632,20.632,0,0,1,4.571-.781h4.818a2.25,2.25,0,0,1,1.678.692,2.2,2.2,0,0,1,.694,1.652v1.157c0,.04,0,1.509,0,1.573l-.008,1.062,1.043.214,7.73,1.563,1.549.315v-6.335a10.974,10.974,0,0,0-11.01-11.008" transform="translate(-102.02 -370.041)" fill="#fff"/><path d="M117.646,413.716a7.082,7.082,0,0,0,2.362-1.252c2.395-1.46,15.8-.944,21.107.552,1.594.449,2.386,1.681,3.41,2.945a7.925,7.925,0,0,0,13.776-7.267,6.163,6.163,0,0,0-1.246-2.562,7.976,7.976,0,0,0-12.467-.237,14.368,14.368,0,0,1-3.78,3.391c-1.255.725-16.856.41-18.267.106a8.792,8.792,0,0,1-3.6-1.451,3.238,3.238,0,0,0-4.73,4.216,3.162,3.162,0,0,0,3.432,1.558" transform="translate(-95.089 -389.605)" fill="#f27221"/></g></g></svg>